<svg width="20" height="20" viewBox="0 0 20 20" fill="none" xmlns="http://www.w3.org/2000/svg">
<path d="M5 10.0001V8.33341H15V10.0001M2.5236 8.3335L8.5205 12.3473C9.05508 12.7037 9.32242 12.8819 9.61133 12.9512C9.86658 13.0123 10.1327 13.0123 10.3881 12.9512C10.677 12.8819 10.9443 12.7037 11.4789 12.3473L17.4757 8.33341M8.58175 3.39076L3.74845 6.42615C3.29267 6.71239 3.06479 6.8555 2.8995 7.04896C2.75321 7.2202 2.64313 7.41931 2.57592 7.63426C2.5 7.87713 2.5 8.14623 2.5 8.68441V14.0001C2.5 14.9335 2.5 15.4002 2.68166 15.7567C2.84144 16.0703 3.09641 16.3253 3.41002 16.4851C3.76653 16.6667 4.23324 16.6667 5.16667 16.6667H14.8333C15.7667 16.6667 16.2335 16.6667 16.59 16.4851C16.9036 16.3253 17.1586 16.0703 17.3183 15.7567C17.5 15.4002 17.5 14.9335 17.5 14.0001V8.68441C17.5 8.14623 17.5 7.87713 17.4241 7.63426C17.3568 7.41931 17.2468 7.2202 17.1005 7.04896C16.9352 6.8555 16.7073 6.71239 16.2516 6.42615L11.4182 3.39076C10.9038 3.06774 10.6467 2.90622 10.3707 2.84326C10.1267 2.7876 9.87333 2.7876 9.62925 2.84326C9.35333 2.90622 9.09617 3.06774 8.58175 3.39076Z" stroke="#EFE9D5" stroke-width="1.66667" stroke-linecap="round" stroke-linejoin="round"/>
</svg>
